# xmcd CD database file
#
# Track frame offsets:
#	150
#	56175
#	84750
#
# Disc length: 1287 seconds
#
# Revision: 0
# Processed by: cddbd v1.5.1PL0 Copyright (c) Steve Scherf et al.
# Submitted via: CDex 1.51
#
DISCID=1b050503
DTITLE=Joshua Redman - SFJazz Collective/Elastic Band (Sampler)
DYEAR=2005
DGENRE=Jazz
TTITLE0=Lingala - from the debut album SFJazz Collective
TTITLE1=Sweet Nasty - from the Elastic Band album "Momentum"
TTITLE2=The Crunge - from the Elastic Band album "Momentum"
EXTD=YEAR: 2005
EXTT0=
EXTT1=
EXTT2=
PLAYORDER=
